<?xml version="1.0" encoding="utf-8"?>
<!-- Generator: Adobe Illustrator 23.0.6, SVG Export Plug-In . SVG Version: 6.00 Build 0)  -->
<svg version="1.1" id="Layer_1" xmlns="http://www.w3.org/2000/svg" xmlns:xlink="http://www.w3.org/1999/xlink" x="0px" y="0px"
	 viewBox="0 0 512 512" style="enable-background:new 0 0 512 512;" xml:space="preserve">
<g id="XMLID_22_">
	<g id="XMLID_64_">
		<defs>
			<path id="XMLID_65_" d="M256,512C114.8,512,0,397.2,0,256C0,114.8,114.8,0,256,0c141.2,0,256,114.8,256,256
				C512,397.2,397.2,512,256,512L256,512z M471.9,291c-7.5-2.4-67.7-20.3-136.2-9.3c28.6,78.6,40.2,142.6,42.5,155.9
				C427.2,404.4,462.2,351.9,471.9,291L471.9,291z M341.4,457.6c-3.3-19.2-15.9-86-46.6-165.8c-0.5,0.2-1,0.3-1.4,0.5
				c-123.3,43-167.6,128.5-171.5,136.6C158.9,457.7,205.5,475,256,475C286.3,475,315.2,468.8,341.4,457.6L341.4,457.6z M93.5,402.5
				c5-8.5,65-107.8,177.7-144.3c2.8-0.9,5.7-1.8,8.6-2.6c-5.5-12.4-11.5-24.9-17.7-37.1C153,251.2,47,249.8,37.4,249.7
				c-0.1,2.2-0.1,4.4-0.1,6.7C37.3,312.5,58.6,363.8,93.5,402.5L93.5,402.5z M42,211.5c9.8,0.1,99.9,0.5,202.2-26.6
				C207.9,120.5,168.8,66.4,163,58.4C101.9,87.3,56.1,143.7,42,211.5L42,211.5z M204.8,43.7c6,8.1,45.8,62.2,81.6,128
				c77.8-29.1,110.7-73.4,114.6-79c-38.6-34.3-89.4-55.1-145-55.1C238.4,37.7,221.2,39.8,204.8,43.7L204.8,43.7z M425.3,118.1
				c-4.6,6.2-41.3,53.2-122.1,86.2c5.1,10.4,10,21,14.5,31.7c1.6,3.8,3.2,7.5,4.7,11.3c72.8-9.1,145.1,5.5,152.3,7
				C474.2,202.7,455.7,155.3,425.3,118.1L425.3,118.1z"/>
		</defs>
		<use xlink:href="#XMLID_65_"  style="overflow:visible;fill-rule:evenodd;clip-rule:evenodd;fill:#FFFFFF;"/>
		<clipPath id="XMLID_2_">
			<use xlink:href="#XMLID_65_"  style="overflow:visible;"/>
		</clipPath>
	</g>
</g>
</svg>
