<?xml version="1.0" encoding="utf-8"?>
<!-- Generator: Adobe Illustrator 23.0.6, SVG Export Plug-In . SVG Version: 6.00 Build 0)  -->
<svg version="1.1" id="logo" xmlns="http://www.w3.org/2000/svg" xmlns:xlink="http://www.w3.org/1999/xlink" x="0px" y="0px"
	 viewBox="0 0 117 30" style="enable-background:new 0 0 117 30;" xml:space="preserve">
<style type="text/css">
	.st0{opacity:0.15;}
	.st1{fill:#636363;}
</style>
<title  id="onix_title">Software Development Ukraine</title>
<desc  id="onix_description">Software Development Outsourcing Provider in Ukraine</desc>
<g id="Originals" class="st0">
	<path class="st1" d="M15.3,22.8c4.1,0,7.5-3.5,7.5-7.8s-3.3-7.8-7.5-7.8S7.8,10.7,7.8,15S11.1,22.8,15.3,22.8z M15.3,30
		C6.8,30,0,23.3,0,15S6.8,0,15.3,0s15.3,6.7,15.3,15S23.7,30,15.3,30z M52.7,9c0.6,1.5,3.9,9.6,4.5,11.1c0.4,1,1.2,1.2,1.5,1.2
		c0.9,0,1.5-0.4,1.5-1.5l0-18.6h7.5v18.3c0.1,6.3-4.6,9.6-8.4,9.6c-3.7,0-7.2-1.5-9.9-8.1c-0.5-1.3-3.3-8.4-4.2-10.5
		c-0.7-1.7-1.3-1.8-1.9-1.8c-0.6,0-1.4,0.4-1.4,1.5v18.6l-7.5,0l0-18.3c-0.1-6.3,4.5-9.6,8.4-9.6C46.5,0.9,50,2.4,52.7,9z
		 M81.1,28.8h-7.8V1.2h7.8V28.8z M91.7,15c-3.4-2.8-5.5-7.1-5.5-11.8c0,0,0-0.1,0-0.1l0,0V1.2h7.5V3h0c0,0,0,0.1,0,0.1
		c0,4.5,3.6,8.2,7.9,8.2c4.4,0,7.9-3.7,7.9-8.2c0,0,0-0.1,0-0.1h0V1.2h7.5V3l0,0c0,0,0,0.1,0,0.1c0,4.7-2.1,9-5.5,11.8
		c3.3,2.8,5.5,7,5.5,11.7l0,0v2.1h-7.5v-2.1h0c-0.1-4.5-3.6-8.1-7.9-8.1c-4.3,0-7.9,3.6-7.9,8.1h0v2.1h-7.5v-2.1l0,0
		C86.2,22,88.4,17.8,91.7,15z"/>
</g>
</svg>
